<?xml version="1.0" encoding="UTF-8"?>
<!DOCTYPE svg PUBLIC "-//W3C//DTD SVG 1.1//EN" "http://www.w3.org/Graphics/SVG/1.1/DTD/svg11.dtd">
<!-- Creator: CorelDRAW -->
<svg xmlns="http://www.w3.org/2000/svg" xml:space="preserve" width="30.8615mm" height="23.2091mm" version="1.1" style="shape-rendering:geometricPrecision; text-rendering:geometricPrecision; image-rendering:optimizeQuality; fill-rule:evenodd; clip-rule:evenodd"
viewBox="0 0 664.46 499.7"
 xmlns:xlink="http://www.w3.org/1999/xlink"
 xmlns:xodm="http://www.corel.com/coreldraw/odm/2003">
 <defs>
  <style type="text/css">
   <![CDATA[
    .fil0 {fill:black}
   ]]>
  </style>
 </defs>
 <g id="Layer_x0020_1">
  <metadata id="CorelCorpID_0Corel-Layer"/>
  <path class="fil0" d="M484.36 214.65l5.47 -38.58 -65.45 28.36 -106.05 -40.05 -8.13 44.38 -27.14 0 6.48 -35.39 -61.49 38.01 -6.23 46.09 41.15 -6.76 0 27.07 -262.98 43.21c102.23,-63.2 204.43,-126.42 306.68,-189.58l117.08 44.22 108.9 -47.17 131.79 83.35 -147.84 24.29c-8.53,-9.43 -19.34,-16.7 -32.26,-21.46zm-199.35 16.15l0 47.01 147.39 0c25.89,0 37.45,16.33 37.45,35.45 0,19.12 -10.76,37.45 -37.45,37.45l-104.77 0c-29.48,0 -42.23,12.35 -42.23,42.63l0 106.36 47.01 0 0 -97.2c0,-4.78 2.39,-6.77 6.77,-6.77l70.11 0 61.35 103.97 52.19 0 -62.54 -107.56c41.03,-11.55 56.97,-47.41 56.97,-80.87 0,-43.02 -25.89,-80.47 -86.44,-80.47l-145.8 0zm107.82 -230.8c68.69,0 130.88,27.85 175.9,72.86 25.14,25.14 44.92,55.64 57.49,89.64l-60.66 -38.36 -10.25 -6.48c-4.66,-5.77 -9.62,-11.29 -14.86,-16.53 -37.78,-37.78 -89.98,-61.15 -147.63,-61.15 -57.66,0 -109.85,23.37 -147.63,61.15 -20.42,20.42 -36.63,45.05 -47.21,72.48l-50 30.91c9.15,-50.96 33.82,-96.54 68.94,-131.66 45.02,-45.02 107.21,-72.86 175.9,-72.86zm-199.42 310.76c10.16,32.73 28.16,62 51.79,85.64 5.74,5.74 11.81,11.14 18.18,16.18l0 48.65c-16.92,-10.33 -32.51,-22.62 -46.45,-36.56 -29.44,-29.44 -51.53,-66.22 -63.3,-107.37l39.78 -6.54zm311.47 114.21c12.89,-8.21 24.83,-17.81 35.59,-28.57 37.78,-37.78 61.15,-89.98 61.15,-147.63 0,-1.69 -0.02,-3.38 -0.06,-5.07l39.77 -6.53c0.18,3.85 0.27,7.71 0.27,11.6 0,68.69 -27.85,130.88 -72.86,175.9 -13.2,13.2 -27.87,24.91 -43.75,34.89l-20.11 -34.59zm-311.34 -162.83l4.34 -32.08 -69.12 42.73 64.79 -10.64zm383.98 -73.71l-2 10.94 -5.44 0.89 20.76 -3.41 -13.32 -8.42zm-30.73 15.67l5.75 -31.46 -28.09 -17.77 -10.76 54.67 33.1 -5.44z"/>
 </g>
</svg>
