<?xml version="1.0" encoding="UTF-8"?>
<!DOCTYPE svg PUBLIC "-//W3C//DTD SVG 1.1//EN" "http://www.w3.org/Graphics/SVG/1.1/DTD/svg11.dtd">
<!-- Creator: CorelDRAW -->
<svg xmlns="http://www.w3.org/2000/svg" xml:space="preserve" width="52.4558mm" height="31.8098mm" version="1.1" style="shape-rendering:geometricPrecision; text-rendering:geometricPrecision; image-rendering:optimizeQuality; fill-rule:evenodd; clip-rule:evenodd"
viewBox="0 0 2893.89 1754.89"
 xmlns:xlink="http://www.w3.org/1999/xlink"
 xmlns:xodm="http://www.corel.com/coreldraw/odm/2003">
 <defs>
  <style type="text/css">
   <![CDATA[
    .fil3 {fill:url(#id0)}
    .fil4 {fill:url(#id1)}
    .fil2 {fill:url(#id2)}
    .fil5 {fill:url(#id3);fill-rule:nonzero}
    .fil1 {fill:url(#id4);fill-rule:nonzero}
    .fil0 {fill:url(#id5);fill-rule:nonzero}
   ]]>
  </style>
  <linearGradient id="id0" gradientUnits="userSpaceOnUse" x1="1734.23" y1="831.69" x2="2093.06" y2="953.52">
   <stop offset="0" style="stop-opacity:1; stop-color:#C28100"/>
   <stop offset="0.388235" style="stop-opacity:1; stop-color:#CE9624"/>
   <stop offset="0.541176" style="stop-opacity:1; stop-color:#DBAC48"/>
   <stop offset="0.705882" style="stop-opacity:1; stop-color:#D4A33E"/>
   <stop offset="1" style="stop-opacity:1; stop-color:#CC9933"/>
  </linearGradient>
  <linearGradient id="id1" gradientUnits="userSpaceOnUse" xlink:href="#id0" x1="902.44" y1="285.35" x2="1960.96" y2="896.48">
  </linearGradient>
  <linearGradient id="id2" gradientUnits="userSpaceOnUse" x1="1228.5" y1="582.71" x2="1227.53" y2="549.26">
   <stop offset="0" style="stop-opacity:1; stop-color:#C28100"/>
   <stop offset="0.172549" style="stop-opacity:1; stop-color:#C78A12"/>
   <stop offset="0.658824" style="stop-opacity:1; stop-color:#CC9425"/>
   <stop offset="1" style="stop-opacity:1; stop-color:#CC9933"/>
  </linearGradient>
  <linearGradient id="id3" gradientUnits="userSpaceOnUse" xlink:href="#id0" x1="1198.8" y1="798.64" x2="1760.85" y2="1073.17">
  </linearGradient>
  <linearGradient id="id4" gradientUnits="userSpaceOnUse" xlink:href="#id0" x1="2197.49" y1="1351.42" x2="2435.85" y2="1858.89">
  </linearGradient>
  <linearGradient id="id5" gradientUnits="userSpaceOnUse" xlink:href="#id0" x1="702.08" y1="1319.95" x2="894.25" y2="1885.04">
  </linearGradient>
 </defs>
 <g id="Layer_x0020_1">
  <metadata id="CorelCorpID_0Corel-Layer"/>
  <g id="_2472748702928">
   <path class="fil0" d="M-0 1455.43l0 52.35 164.15 0c28.84,0 41.7,18.19 41.7,39.48 0,21.29 -11.98,41.7 -41.7,41.7l-116.68 0c-32.83,0 -47.03,13.75 -47.03,47.47l0 118.45 52.35 0 0 -108.25c0,-5.32 2.66,-7.54 7.54,-7.54l78.08 0 68.32 115.79 58.12 0 -69.66 -119.78c45.7,-12.87 63.44,-52.8 63.44,-90.06 0,-47.91 -28.84,-89.62 -96.27,-89.62l-162.38 0zm435.22 0c-86.96,0 -135.31,49.69 -135.31,150.39 0,100.26 47.91,149.06 135.31,149.06l40.81 0c87.4,0 135.31,-48.8 135.31,-149.06 0,-100.7 -48.36,-150.39 -135.31,-150.39l-40.81 0zm40.81 52.35c57.67,0 82.52,29.28 82.52,97.6 0,68.76 -24.84,97.16 -82.52,97.16l-40.81 0c-58.12,0 -82.96,-28.4 -82.96,-96.72 0,-68.76 25.29,-98.04 82.96,-98.04l40.81 0zm321.19 -52.35c-86.96,0 -135.31,49.24 -135.31,149.95 0,100.26 47.91,149.51 135.31,149.51l115.79 0 0 -52.35 -115.79 0c-58.12,0 -82.96,-28.84 -82.96,-97.16 0,-68.77 25.29,-97.6 82.96,-97.6l115.79 0 0 -52.35 -115.79 0zm178.34 0l0 299.46 52.35 0 0 -125.1 153.06 0 0 125.1 52.79 0 0 -299.46 -52.79 0 0 122 -153.06 0 0 -122 -52.35 0zm455.18 58.56c3.11,-7.1 7.98,-10.2 15.08,-10.2 7.1,0 11.98,3.1 14.64,10.2l90.94 240.9 58.12 0 -101.15 -266.19c-10.65,-27.95 -31.05,-38.6 -62.11,-38.6 -31.5,0 -51.91,10.65 -63,38.6l-105.14 266.19 57.67 0 94.94 -240.9z"/>
   <path class="fil1" d="M1748.85 1455.43l0 52.35 87.4 0 0 247.11 52.8 0 0 -247.11 87.39 0 0 -52.35 -227.59 0zm366.01 0c-70.54,0 -100.26,33.72 -100.26,81.63 0,32.83 14.19,55.9 42.14,67.43 -27.51,11.54 -43.03,34.6 -43.03,68.76 0,46.58 28.84,81.63 99.82,81.63l151.73 0 0 -52.35 -151.73 0c-30.61,0 -45.25,-14.19 -45.25,-37.71 0,-24.4 15.53,-36.38 45.7,-36.38l148.62 0 0 -47.47 -147.29 0c-30.17,0 -45.7,-11.09 -45.7,-35.49 0,-23.07 13.75,-37.71 45.25,-37.71l149.95 0 0 -52.35 -149.95 0zm342.49 0c-86.96,0 -135.31,49.24 -135.31,149.95 0,100.26 47.91,149.51 135.31,149.51l115.79 0 0 -52.35 -115.79 0c-58.12,0 -82.96,-28.84 -82.96,-97.16 0,-68.77 25.29,-97.6 82.96,-97.6l115.79 0 0 -52.35 -115.79 0zm178.34 0l0 299.46 52.35 0 0 -125.1 153.06 0 0 125.1 52.79 0 0 -299.46 -52.79 0 0 122 -153.06 0 0 -122 -52.35 0z"/>
   <path class="fil2" d="M1685.93 550.02l14.02 -98.84 -167.71 72.66 -271.74 -102.63 -20.83 113.73 -69.54 0 16.61 -90.67 -157.57 97.4 -15.97 118.11 105.44 -17.32 0 69.36 -673.84 110.72c261.94,-161.93 523.83,-323.94 785.82,-485.77l300.01 113.3 279.04 -120.86 337.7 213.58 -378.81 62.24c-21.86,-24.16 -49.56,-42.78 -82.65,-54.99zm-745.21 121.66l11.11 -82.21 -177.12 109.49 166.01 -27.28zm983.89 -188.86l-5.13 28.04 -13.94 2.29 53.19 -8.74 -34.13 -21.59zm-78.75 40.14l14.74 -80.62 -71.97 -45.52 -27.58 140.08 84.81 -13.94z"/>
   <path class="fil3" d="M1738.49 1088.9c33.04,-21.05 63.61,-45.62 91.19,-73.2 96.81,-96.81 156.69,-230.56 156.69,-378.29 0,-4.34 -0.06,-8.67 -0.16,-12.99l101.91 -16.74c0.45,9.85 0.7,19.77 0.7,29.73 0,176.01 -71.35,335.37 -186.7,450.72 -33.81,33.81 -71.4,63.84 -112.09,89.39l-51.53 -88.63z"/>
   <path class="fil4" d="M1451.39 0c176.01,0 335.37,71.35 450.72,186.7 64.43,64.42 115.11,142.57 147.32,229.68l-155.43 -98.3 -26.25 -16.61c-11.94,-14.79 -24.65,-28.92 -38.08,-42.35 -96.8,-96.8 -230.55,-156.68 -378.28,-156.68 -147.73,0 -281.48,59.88 -378.29,156.68 -52.32,52.32 -93.85,115.44 -120.97,185.72l-128.11 79.2c23.45,-130.58 86.65,-247.36 176.64,-337.35 115.35,-115.35 274.71,-186.7 450.72,-186.7zm-511 796.27c26.04,83.86 72.14,158.87 132.71,219.44 14.7,14.7 30.25,28.54 46.58,41.45l0 124.66c-43.35,-26.46 -83.29,-57.97 -119.01,-93.69 -75.44,-75.43 -132.05,-169.69 -162.19,-275.12l101.92 -16.75z"/>
   <path class="fil5" d="M1175.13 591.4l0 120.45 377.68 0c66.35,0 95.95,41.85 95.95,90.85 0,48.99 -27.56,95.95 -95.95,95.95l-268.46 0c-75.53,0 -108.2,31.64 -108.2,109.22l0 272.54 120.45 0 0 -249.06c0,-12.25 6.12,-17.35 17.35,-17.35l179.65 0 157.2 266.41 133.72 0 -160.26 -275.6c105.14,-29.6 145.97,-121.47 145.97,-207.21 0,-110.24 -66.35,-206.19 -221.5,-206.19l-373.59 0z"/>
  </g>
 </g>
</svg>
